<svg xmlns="http://www.w3.org/2000/svg" viewBox="0 0 1584 396" width="3168" height="792">
    <!-- Enhanced gradient background -->
    <defs>
        <linearGradient id="bgGradient" x1="0%" y1="0%" x2="100%" y2="100%">
            <stop offset="0%" style="stop-color:#0A1120"/>
            <stop offset="100%" style="stop-color:#1E293B"/>
        </linearGradient>

        <!-- Circuit pattern -->
        <pattern id="circuitPattern" x="0" y="0" width="100" height="100" patternUnits="userSpaceOnUse">
            <path d="M10 10 L90 10 M50 10 L50 90 M10 50 L90 50" stroke="#334155" stroke-width="1" fill="none" opacity="0.15"/>
            <circle cx="50" cy="50" r="3" fill="#334155" opacity="0.15"/>
        </pattern>

        <!-- AI Pattern -->
        <pattern id="aiPattern" x="0" y="0" width="120" height="120" patternUnits="userSpaceOnUse">
            <path d="M60 20 Q90 60 60 100 Q30 60 60 20" stroke="#38BDF8" stroke-width="1" fill="none" opacity="0.1"/>
            <circle cx="60" cy="60" r="30" stroke="#38BDF8" stroke-width="1" fill="none" opacity="0.1"/>
        </pattern>
    </defs>

    <!-- Background -->
    <rect width="1584" height="396" fill="url(#bgGradient)"/>
    <rect width="1584" height="396" fill="url(#circuitPattern)"/>

    <!-- Left space with AI pattern -->
    <rect x="0" y="0" width="300" height="396" fill="url(#aiPattern)"/>

    <!-- Left side AI/ML visualization -->
    <g transform="translate(150, 198)" opacity="0.8">
        <!-- Brain representation -->
        <path d="M0 0 Q30 -40 60 0 Q90 40 120 0" stroke="#38BDF8" stroke-width="2" fill="none"/>
        <circle cx="30" cy="-10" r="4" fill="#38BDF8"/>
        <circle cx="90" cy="-10" r="4" fill="#38BDF8"/>
        <circle cx="60" cy="10" r="4" fill="#38BDF8"/>
    </g>

    <!-- Central design elements -->
    <!-- Neural network representation - moved to align with text -->
    <g transform="translate(792, 150)" opacity="0.8">
        <circle cx="0" cy="0" r="40" fill="none" stroke="#38BDF8" stroke-width="1"/>
        <circle cx="0" cy="0" r="60" fill="none" stroke="#38BDF8" stroke-width="1"/>
        <circle cx="0" cy="0" r="80" fill="none" stroke="#38BDF8" stroke-width="1" opacity="0.5"/>

        <!-- Nodes -->
        <circle cx="0" cy="-40" r="4" fill="#38BDF8"/>
        <circle cx="34.6" cy="-20" r="4" fill="#38BDF8"/>
        <circle cx="34.6" cy="20" r="4" fill="#38BDF8"/>
        <circle cx="0" cy="40" r="4" fill="#38BDF8"/>
        <circle cx="-34.6" cy="20" r="4" fill="#38BDF8"/>
        <circle cx="-34.6" cy="-20" r="4" fill="#38BDF8"/>

        <!-- Connecting lines -->
        <line x1="0" y1="-40" x2="34.6" y2="-20" stroke="#38BDF8" stroke-width="1"/>
        <line x1="34.6" y1="-20" x2="34.6" y2="20" stroke="#38BDF8" stroke-width="1"/>
        <line x1="34.6" y1="20" x2="0" y2="40" stroke="#38BDF8" stroke-width="1"/>
        <line x1="0" y1="40" x2="-34.6" y2="20" stroke="#38BDF8" stroke-width="1"/>
        <line x1="-34.6" y1="20" x2="-34.6" y2="-20" stroke="#38BDF8" stroke-width="1"/>
        <line x1="-34.6" y1="-20" x2="0" y2="-40" stroke="#38BDF8" stroke-width="1"/>
    </g>

    <!-- Tech stack icons -->
    <g transform="translate(1100, 100)" opacity="0.8">
        <text font-family="monospace" font-size="20" fill="#FF6B6B">🐍</text>
        <text x="30" y="0" font-family="monospace" font-size="14" fill="#FF6B6B">Python</text>
    </g>

    <g transform="translate(1200, 150)" opacity="0.8">
        <text font-family="monospace" font-size="20" fill="#61DAFB">⚛️</text>
        <text x="30" y="0" font-family="monospace" font-size="14" fill="#61DAFB">React</text>
    </g>

    <g transform="translate(1100, 240)" opacity="0.8">
        <text font-family="monospace" font-size="20" fill="#336791">🗃️</text>
        <text x="30" y="0" font-family="monospace" font-size="14" fill="#336791">SQL</text>
    </g>

    <g transform="translate(350, 150)" opacity="0.8">
        <text font-family="monospace" font-size="20" fill="#F05032">⎇</text>
        <text x="30" y="0" font-family="monospace" font-size="14" fill="#F05032">Git</text>
    </g>

    <g transform="translate(450, 200)" opacity="0.8">
        <text font-family="monospace" font-size="20" fill="#F7DF1E">JS</text>
        <text x="30" y="0" font-family="monospace" font-size="14" fill="#F7DF1E">JavaScript</text>
    </g>

    <!-- Additional tech icons -->
    <g transform="translate(550, 150)" opacity="0.8">
        <text font-family="monospace" font-size="20" fill="#4ADE80">☁️</text>
        <text x="30" y="0" font-family="monospace" font-size="14" fill="#4ADE80">Cloud</text>
    </g>

    <g transform="translate(650, 200)" opacity="0.8">
        <text font-family="monospace" font-size="20" fill="#A78BFA">🤖</text>
        <text x="30" y="0" font-family="monospace" font-size="14" fill="#A78BFA">AI/ML</text>
    </g>

    <!-- Code symbols scattered -->
    <g fill="#94A3B8" opacity="0.4">
        <text x="500" y="100" font-family="monospace" font-size="14">def main():</text>
        <text x="1000" y="180" font-family="monospace" font-size="14">{"code": true}</text>
        <text x="860" y="220" font-family="monospace" font-size="14">import tensorflow</text>
        <text x="900" y="300" font-family="monospace" font-size="14">npm install</text>
        <text x="400" y="350" font-family="monospace" font-size="14">@api.route('/predict')</text>
        <text x="900" y="120" font-family="monospace" font-size="14">const web3 = new Web3()</text>
    </g>

    <!-- Main headline (aligned with neural network) -->
    <g transform="translate(792, 270)">
        <text text-anchor="middle" font-family="Arial, sans-serif" font-size="22" fill="#ffffff" font-weight="bold">
            Backend Engineer | AI/ML Developer
        </text>
        <text text-anchor="middle" font-family="Arial, sans-serif" font-size="16" fill="#94A3B8" y="30">
            Building with Python—From robust backends to absurdly personal AI solutions.
        </text>
    </g>

    <!-- Stats with commits -->
    <g transform="translate(1400, 350)" opacity="0.7">
        <text text-anchor="end" font-family="monospace" font-size="12" fill="#4ADE80">62 Public Repos | 1.2k Total Commits</text>
    </g>
</svg>